<svg width="137" height="100" xmlns="http://www.w3.org/2000/svg" preserveAspectRatio="xMidYMid meet">

 <g>
  <title>background</title>
  <rect fill="none" id="canvas_background" height="102" width="139" y="-1" x="-1"/>
 </g>
 <g>
  <title>Layer 1</title>
  <g id="svg_1" fill="#000000" transform="translate(0,171) scale(0.10000000149011612,-0.10000000149011612) ">
   <path fill="#ffffff" id="svg_2" d="m120.666862,1697.666422c3,-5 39,-30 80,-55l74,-46l412,0l412,0l74,46c41,25 77,50 80,55c3,5 -234,9 -566,9c-332,0 -569,-4 -566,-9z"/>
   <path fill="#ffffff" id="svg_3" d="m25.666862,1629.666422l-24,-38l1,-385c0,-427 0,-424 66,-472l33,-23l585,0l585,0l33,23c66,48 66,45 66,472l1,385l-24,38c-15,25 -29,37 -40,34c-9,-2 -149,-89 -311,-192c-162,-104 -302,-189 -310,-189c-8,0 -148,85 -310,189c-162,103 -302,190 -311,192c-11,3 -25,-9 -40,-34zm401,-379l260,-166l260,166c143,91 262,166 263,166c2,0 3,-135 3,-300l0,-300l-526,0l-526,0l0,300c0,165 2,300 3,300c2,0 120,-75 263,-166z"/>
  </g>
 </g>
</svg>