<svg width="900" height="900" xmlns="http://www.w3.org/2000/svg" preserveAspectRatio="xMidYMid meet">
 <metadata>Created by potrace 1.15, written by Peter Selinger 2001-2017</metadata>

 <g>
  <title>background</title>
  <rect fill="none" id="canvas_background" height="402" width="582" y="-1" x="-1"/>
 </g>
 <g>
  <title>Layer 1</title>
  <g id="svg_1" fill="#000000" transform="translate(0,900) scale(0.10000000149011612,-0.10000000149011612) ">
   <path fill="#ffffff" stroke="#ffffff" id="svg_2" d="m4235,8993c-1132,-77 -2138,-533 -2928,-1328c-863,-867 -1336,-2051 -1304,-3265c27,-1010 365,-1937 990,-2715c1196,-1487 3189,-2060 4987,-1433c1192,415 2167,1328 2663,2493c436,1025 472,2199 101,3249c-638,1806 -2366,3022 -4268,3004c-105,-1 -213,-3 -241,-5zm527,-604c690,-47 1329,-264 1898,-645c905,-605 1511,-1544 1690,-2619c59,-357 64,-793 14,-1159c-163,-1183 -870,-2233 -1911,-2839c-480,-279 -1019,-453 -1578,-509c-167,-16 -594,-16 -755,1c-1136,116 -2140,702 -2807,1637c-378,528 -625,1189 -695,1854c-16,162 -16,618 0,780c109,1041 626,1993 1439,2646c766,617 1729,921 2705,853z"/>
   <path fill="#ffffff" stroke="#ffffff" id="svg_3" d="m3275,7689c-53,-12 -174,-79 -285,-158c-98,-69 -178,-137 -170,-143c3,-2 40,-26 83,-52c328,-202 637,-486 845,-779c76,-107 155,-244 207,-357c21,-47 42,-89 46,-93c11,-14 340,322 377,385c78,132 42,293 -119,539c-176,267 -405,481 -647,603c-122,61 -230,79 -337,55z"/>
   <path fill="#ffffff" stroke="#ffffff" id="svg_4" d="m2503,7171c-64,-46 -104,-107 -203,-306c-168,-338 -226,-576 -186,-765c77,-361 492,-1276 879,-1940c421,-720 955,-1421 1532,-2009c381,-389 655,-601 840,-652c75,-20 87,-21 190,-10c137,15 489,74 637,107c62,13 126,34 143,45c48,34 83,87 91,138c26,167 -100,623 -248,901c-94,177 -261,409 -394,546l-61,64l-69,0c-38,0 -117,-7 -176,-16c-125,-18 -206,-10 -291,29c-228,105 -638,571 -1064,1212c-340,510 -457,763 -456,985c0,86 4,105 41,200c86,225 76,390 -34,571c-88,146 -333,432 -488,572c-261,235 -444,348 -576,355c-60,3 -69,1 -107,-27z"/>
   <path fill="#ffffff" stroke="#ffffff" id="svg_5" d="m6205,3556c-103,-34 -315,-129 -315,-142c0,-3 43,-52 96,-107c237,-247 411,-542 533,-903c46,-135 100,-366 117,-501c4,-29 12,-53 18,-53c6,0 45,19 86,41c188,102 329,218 374,307c95,190 40,493 -160,872c-139,262 -312,455 -455,505c-72,26 -181,19 -294,-19z"/>
  </g>
 </g>
</svg>